<?xml version="1.0" encoding="UTF-8"?>
<!DOCTYPE svg PUBLIC "-//W3C//DTD SVG 1.1//EN" "http://www.w3.org/Graphics/SVG/1.1/DTD/svg11.dtd">
<!-- Creator: CorelDRAW 2017 -->
<svg xmlns="http://www.w3.org/2000/svg" xml:space="preserve" width="8.5in" height="11in" version="1.1" style="shape-rendering:geometricPrecision; text-rendering:geometricPrecision; image-rendering:optimizeQuality; fill-rule:evenodd; clip-rule:evenodd"
viewBox="0 0 8500 11000"
 xmlns:xlink="http://www.w3.org/1999/xlink">
 <defs>
  <style type="text/css">
   <![CDATA[
    .fil0 {fill:#4B4B4B}
   ]]>
  </style>
 </defs>
 <g id="Layer_x0020_1">
  <metadata id="CorelCorpID_0Corel-Layer"/>
  <path class="fil0" d="M7607.26 1472.42c-2128.14,523.99 -4268.15,659.8 -6433.27,133.35 -1078.15,-262.15 -869.99,-315.66 -876.32,1954.33l-0.62 4103.79c0.54,1392.94 -132.29,1437.11 489.67,1593.26 1167.14,293.04 2406.27,447.37 3677.12,421.65 645.8,-13.07 3248.25,-259.28 3538.03,-593.88 143.88,-166.13 72.44,-1632.91 73.65,-1974.73l0.63 -5147.07c2.98,-352.08 -95.06,-582.74 -468.89,-490.7zm-6023.42 1761.98l-0.49 1412.84c565.35,90.06 1108.36,234.13 1713.62,287.02l-10.01 -1715.06c-880.1,-101.57 -1072.48,-212.98 -1703.96,-317.34l0.84 332.54zm3460.35 1700.61c669.89,-32.54 1123.68,-183.59 1713.28,-286.24l-0.5 -1747.02c-577.64,112.65 -1061.44,240.26 -1691.17,317.94 -59.03,192.05 -18.5,1411.83 -21.6,1715.31 -653.09,80.31 -1123.62,4.44 -1747.64,10.77l-1.95 1705c-661.35,-41.34 -1113.26,-172.57 -1708.11,-287.97l-3.15 1659.34c74.83,98.94 250.19,101.06 374.58,128.19l1339.05 211.43 -2.37 -1710.99c595.91,47.54 1150.08,77.23 1747.32,-4.57l2.27 -1711.2z"/>
 </g>
</svg>
