<?xml version="1.0" standalone="no"?>
<!DOCTYPE svg PUBLIC "-//W3C//DTD SVG 20010904//EN"
 "http://www.w3.org/TR/2001/REC-SVG-20010904/DTD/svg10.dtd">
<svg version="1.0" xmlns="http://www.w3.org/2000/svg"
 width="207.000000pt" height="207.000000pt" viewBox="0 0 207.000000 207.000000"
 preserveAspectRatio="xMidYMid meet">
<metadata>
Created by potrace 1.11, written by Peter Selinger 2001-2013
</metadata>
<g transform="translate(0.000000,207.000000) scale(0.100000,-0.100000)"
fill="#000000" stroke="none">
<path d="M1055 2064 c-389 -58 -703 -176 -849 -321 -186 -184 -160 -444 82
-793 89 -130 252 -321 252 -296 0 4 -6 19 -14 34 -37 74 -59 196 -60 332 -2
209 16 304 79 430 80 159 204 244 375 257 150 11 266 -31 365 -131 120 -121
176 -287 176 -523 0 -231 -57 -406 -173 -529 -90 -95 -203 -136 -363 -130
l-90 3 70 -33 c212 -99 384 -56 528 134 39 51 58 82 125 203 22 40 88 192 127
291 28 75 81 277 90 348 3 25 8 62 11 83 11 74 6 242 -10 310 -40 169 -131
264 -302 312 -58 16 -348 29 -419 19z"/>
<path d="M907 1488 c-152 -33 -235 -186 -235 -432 0 -281 108 -446 293 -446
193 0 298 177 289 486 -5 160 -43 266 -121 335 -63 55 -144 75 -226 57z"/>
<path d="M53 195 c-20 -14 -23 -25 -23 -79 0 -90 10 -100 106 -102 76 -1 111
7 126 30 11 16 9 128 -2 146 -14 23 -177 27 -207 5z m165 -27 c16 -16 16 -105
0 -114 -17 -11 -99 -12 -125 -3 -20 7 -23 16 -23 57 0 26 5 53 12 60 16 16
120 16 136 0z"/>
<path d="M280 197 c0 -13 106 -168 124 -179 6 -4 14 -8 18 -8 11 0 137 183
132 192 -13 20 -34 3 -83 -68 -29 -42 -57 -72 -61 -67 -4 4 -28 38 -54 76 -44
62 -76 85 -76 54z"/>
<path d="M631 157 c-19 -28 -45 -68 -58 -88 -38 -58 -24 -84 17 -32 19 25 27
27 92 28 66 0 72 -1 91 -27 22 -30 47 -37 47 -13 0 25 -119 185 -138 185 -9 0
-32 -24 -51 -53z m99 -60 c0 -6 -80 -1 -86 6 -3 3 4 19 17 36 l22 31 24 -35
c13 -19 23 -36 23 -38z"/>
<path d="M854 197 c-3 -8 -4 -52 -2 -98 l3 -84 102 0 c131 0 140 7 138 101 -2
52 -6 70 -20 81 -26 18 -214 19 -221 0z m194 -30 c14 -16 13 -105 0 -113 -6
-4 -43 -8 -82 -9 l-71 -1 -5 35 c-3 20 -3 51 -1 69 l3 32 73 0 c46 0 76 -5 83
-13z"/>
<path d="M1220 195 c-21 -26 -110 -169 -110 -177 0 -19 30 -6 45 20 16 26 20
27 91 27 71 0 76 -2 92 -28 17 -28 36 -35 47 -17 9 15 -117 190 -136 190 -9 0
-22 -7 -29 -15z m70 -90 c0 -6 -19 -10 -42 -10 -46 1 -49 8 -21 51 l16 25 23
-28 c13 -15 23 -33 24 -38z"/>
<path d="M1416 194 c-3 -9 -6 -51 -6 -94 0 -59 4 -79 15 -83 20 -8 23 1 26 66
1 31 5 57 9 57 3 0 13 -12 22 -27 20 -32 86 -103 96 -103 13 0 27 14 80 78
l52 64 0 -71 c0 -56 3 -71 15 -71 8 0 16 3 16 8 4 23 4 169 1 180 -9 26 -34 9
-94 -63 -34 -41 -65 -75 -68 -75 -3 0 -34 34 -69 75 -63 76 -84 88 -95 59z"/>
<path d="M1787 203 c-3 -7 -2 -142 2 -181 1 -10 25 -13 107 -10 127 5 134 10
134 104 0 86 -13 94 -142 94 -53 0 -99 -3 -101 -7z m187 -29 c12 -5 16 -20 16
-60 0 -64 -8 -70 -100 -69 l-65 0 -2 68 -2 67 69 0 c37 0 75 -3 84 -6z"/>
</g>
</svg>
