<svg width="26" height="26" viewBox="0 0 26 26" fill="none" xmlns="http://www.w3.org/2000/svg">
<circle cx="13" cy="13" r="13" fill="#56A5F1"/>
<path d="M8.33331 9.66667C8.33331 10.3739 8.61426 11.0522 9.11436 11.5523C9.61446 12.0524 10.2927 12.3333 11 12.3333C11.7072 12.3333 12.3855 12.0524 12.8856 11.5523C13.3857 11.0522 13.6666 10.3739 13.6666 9.66667C13.6666 8.95942 13.3857 8.28115 12.8856 7.78105C12.3855 7.28095 11.7072 7 11 7C10.2927 7 9.61446 7.28095 9.11436 7.78105C8.61426 8.28115 8.33331 8.95942 8.33331 9.66667Z" stroke="white" stroke-width="1.5" stroke-linecap="round" stroke-linejoin="round"/>
<path d="M7 19V17.6667C7 16.9594 7.28095 16.2811 7.78105 15.781C8.28115 15.281 8.95942 15 9.66667 15H12.3333C12.9733 15 13.56 15.2253 14.02 15.6007" stroke="white" stroke-width="1.5" stroke-linecap="round" stroke-linejoin="round"/>
<path d="M15.6667 7.08667C16.2403 7.23354 16.7487 7.56714 17.1118 8.03488C17.4748 8.50262 17.6719 9.07789 17.6719 9.67C17.6719 10.2621 17.4748 10.8374 17.1118 11.3051C16.7487 11.7729 16.2403 12.1065 15.6667 12.2533" stroke="white" stroke-width="1.5" stroke-linecap="round" stroke-linejoin="round"/>
<path d="M15.6667 17.6667H19.6667" stroke="white" stroke-width="1.5" stroke-linecap="round" stroke-linejoin="round"/>
<path d="M17.6667 15.6667V19.6667" stroke="white" stroke-width="1.5" stroke-linecap="round" stroke-linejoin="round"/>
</svg>
