<svg width="32" height="32" viewBox="0 0 32 32" fill="none" xmlns="http://www.w3.org/2000/svg">
<circle cx="16" cy="16" r="16" fill="#2FA3AE"/>
<path d="M16.8333 23.5H11C10.558 23.5 10.134 23.3244 9.82149 23.0119C9.50892 22.6993 9.33333 22.2754 9.33333 21.8333V11.8333C9.33333 11.3913 9.50892 10.9674 9.82149 10.6548C10.134 10.3423 10.558 10.1667 11 10.1667H21C21.442 10.1667 21.8659 10.3423 22.1785 10.6548C22.4911 10.9674 22.6667 11.3913 22.6667 11.8333V17.25" stroke="white" stroke-width="1.5" stroke-linecap="round" stroke-linejoin="round"/>
<path d="M19.3333 8.5V11.8333" stroke="white" stroke-width="1.5" stroke-linecap="round" stroke-linejoin="round"/>
<path d="M12.6667 8.5V11.8333" stroke="white" stroke-width="1.5" stroke-linecap="round" stroke-linejoin="round"/>
<path d="M9.33333 15.1667H22.6667" stroke="white" stroke-width="1.5" stroke-linecap="round" stroke-linejoin="round"/>
<path d="M24.3333 24.3333L20.1667 20.1667" stroke="white" stroke-width="1.5" stroke-linecap="round" stroke-linejoin="round"/>
<path d="M20.1667 24.3333L24.3333 20.1667" stroke="white" stroke-width="1.5" stroke-linecap="round" stroke-linejoin="round"/>
</svg>
