<svg width="24" height="24" viewBox="0 0 24 24" fill="none" xmlns="http://www.w3.org/2000/svg">
<circle cx="12" cy="12" r="12" fill="#252950"/>
<g clip-path="url(#clip0_2_9)">
<path d="M11.6667 18H8C7.64638 18 7.30724 17.8595 7.05719 17.6095C6.80714 17.3594 6.66666 17.0203 6.66666 16.6667V8.66667C6.66666 8.31305 6.80714 7.97391 7.05719 7.72386C7.30724 7.47381 7.64638 7.33333 8 7.33333H16C16.3536 7.33333 16.6928 7.47381 16.9428 7.72386C17.1929 7.97391 17.3333 8.31305 17.3333 8.66667V12.6667" stroke="white" stroke-width="1.5" stroke-linecap="round" stroke-linejoin="round"/>
<path d="M14.6667 6V8.66667" stroke="white" stroke-width="1.5" stroke-linecap="round" stroke-linejoin="round"/>
<path d="M9.33334 6V8.66667" stroke="white" stroke-width="1.5" stroke-linecap="round" stroke-linejoin="round"/>
<path d="M6.66666 11.3333H17.3333" stroke="white" stroke-width="1.5" stroke-linecap="round" stroke-linejoin="round"/>
<path d="M14 16.6667L15.3333 18L18 15.3333" stroke="white" stroke-width="1.5" stroke-linecap="round" stroke-linejoin="round"/>
</g>
<defs>
<clipPath id="clip0_2_9">
<rect width="16" height="16" fill="white" transform="translate(4 4)"/>
</clipPath>
</defs>
</svg>
