<svg width="32" height="32" viewBox="0 0 32 32" fill="none" xmlns="http://www.w3.org/2000/svg">
<circle cx="16" cy="16" r="16" fill="#2FA3AE"/>
<path d="M11 22.6667V21C11 19.6739 11.5268 18.4021 12.4645 17.4645C13.4021 16.5268 14.6739 16 16 16C17.3261 16 18.5979 16.5268 19.5355 17.4645C20.4732 18.4021 21 19.6739 21 21V22.6667C21 22.8877 20.9122 23.0996 20.7559 23.2559C20.5996 23.4122 20.3877 23.5 20.1667 23.5H11.8333C11.6123 23.5 11.4004 23.4122 11.2441 23.2559C11.0878 23.0996 11 22.8877 11 22.6667Z" stroke="white" stroke-width="1.5" stroke-linecap="round" stroke-linejoin="round"/>
<path d="M11 9.33333V11C11 12.3261 11.5268 13.5979 12.4645 14.5355C13.4021 15.4732 14.6739 16 16 16C17.3261 16 18.5979 15.4732 19.5355 14.5355C20.4732 13.5979 21 12.3261 21 11V9.33333C21 9.11232 20.9122 8.90036 20.7559 8.74408C20.5996 8.5878 20.3877 8.5 20.1667 8.5H11.8333C11.6123 8.5 11.4004 8.5878 11.2441 8.74408C11.0878 8.90036 11 9.11232 11 9.33333Z" stroke="white" stroke-width="1.5" stroke-linecap="round" stroke-linejoin="round"/>
</svg>
