<svg width="32" height="32" viewBox="0 0 32 32" fill="none" xmlns="http://www.w3.org/2000/svg">
<circle cx="16" cy="16" r="16" fill="#A0AEEA"/>
<path d="M10.1667 23.5V10.1667C10.1667 9.72464 10.3423 9.30072 10.6548 8.98816C10.9674 8.67559 11.3913 8.5 11.8333 8.5H20.1667C20.6087 8.5 21.0326 8.67559 21.3452 8.98816C21.6577 9.30072 21.8333 9.72464 21.8333 10.1667V23.5L19.3333 21.8333L17.6667 23.5L16 21.8333L14.3333 23.5L12.6667 21.8333L10.1667 23.5Z" stroke="white" stroke-width="1.5" stroke-linecap="round" stroke-linejoin="round"/>
<path d="M17.6667 12.6667H15.5833C15.2518 12.6667 14.9339 12.7984 14.6995 13.0328C14.465 13.2672 14.3333 13.5852 14.3333 13.9167C14.3333 14.2482 14.465 14.5661 14.6995 14.8006C14.9339 15.035 15.2518 15.1667 15.5833 15.1667H16.4167C16.7482 15.1667 17.0661 15.2984 17.3006 15.5328C17.535 15.7672 17.6667 16.0852 17.6667 16.4167C17.6667 16.7482 17.535 17.0661 17.3006 17.3006C17.0661 17.535 16.7482 17.6667 16.4167 17.6667H14.3333M16 17.6667V18.9167M16 11.4167V12.6667" stroke="white" stroke-width="1.5" stroke-linecap="round" stroke-linejoin="round"/>
</svg>
