<?xml version="1.0" encoding="utf-8"?>
<!-- Generator: Adobe Illustrator 24.1.0, SVG Export Plug-In . SVG Version: 6.00 Build 0)  -->
<svg version="1.1" id="Layer_1" xmlns="http://www.w3.org/2000/svg" xmlns:xlink="http://www.w3.org/1999/xlink" x="0px" y="0px"
	 viewBox="0 0 38.69 49.3" style="enable-background:new 0 0 38.69 49.3;" xml:space="preserve">
<style type="text/css">
	.st0{fill:#4B4B4B;}
</style>
<g>
	<path class="st0" d="M25.93,6.95h-6.01c-1.92,0-3.48-1.56-3.48-3.48v0C16.44,1.56,18,0,19.92,0l6.01,0c1.92,0,3.48,1.56,3.48,3.48
		v0C29.4,5.4,27.85,6.95,25.93,6.95z"/>
	<path class="st0" d="M34.79,2.9h-2.91v3.07c0,1.92-1.56,3.48-3.48,3.48H17.44c-1.92,0-3.48-1.56-3.48-3.48V2.9H11
		c-2.15,0-3.89,1.74-3.89,3.89v27.2h13.36l0-1.31c0-1.12,0.62-2.12,1.61-2.62c0.99-0.5,2.16-0.4,3.06,0.26l10.95,8.12
		c0.74,0.55,1.18,1.43,1.18,2.35c0,0.61-0.21,1.18-0.55,1.67c1.17-0.67,1.98-1.92,1.98-3.37V6.79C38.69,4.64,36.94,2.9,34.79,2.9z
		 M20.67,22.9l-3.91,5.56c-0.1,0.25-0.28,0.47-0.54,0.61c-0.27,0.15-0.57,0.18-0.86,0.12c-0.18-0.03-0.35-0.1-0.51-0.22
		c-0.21-0.16-0.36-0.37-0.43-0.6l-1.48-2.53c-0.33-0.59-0.11-1.34,0.48-1.67c0.59-0.33,1.34-0.11,1.67,0.48l0.6,1.04l2.99-4.25
		c0.41-0.55,1.18-0.66,1.72-0.25C20.96,21.59,21.07,22.36,20.67,22.9z M20.67,13.69l-3.91,5.56c-0.1,0.25-0.28,0.47-0.54,0.61
		c-0.27,0.15-0.57,0.18-0.86,0.12c-0.18-0.03-0.35-0.1-0.51-0.22c-0.21-0.16-0.36-0.37-0.43-0.6l-1.48-2.53
		c-0.33-0.59-0.11-1.34,0.48-1.67c0.59-0.33,1.34-0.11,1.67,0.48l0.6,1.04l2.99-4.25c0.41-0.55,1.18-0.66,1.72-0.25
		S21.07,13.14,20.67,13.69z M31.9,28.11h-8.56c-0.68,0-1.23-0.55-1.23-1.23c0-0.68,0.55-1.23,1.23-1.23h8.56
		c0.68,0,1.23,0.55,1.23,1.23C33.13,27.56,32.58,28.11,31.9,28.11z M31.9,23.4h-8.56c-0.68,0-1.23-0.55-1.23-1.23
		c0-0.68,0.55-1.23,1.23-1.23h8.56c0.68,0,1.23,0.55,1.23,1.23C33.13,22.85,32.58,23.4,31.9,23.4z M31.9,18.85h-8.56
		c-0.68,0-1.23-0.55-1.23-1.23s0.55-1.23,1.23-1.23h8.56c0.68,0,1.23,0.55,1.23,1.23S32.58,18.85,31.9,18.85z"/>
	<g>
		<path class="st0" d="M34.48,40.75c0.22,0.16,0.22,0.5,0,0.66l-4.5,3.32l-4.73,3.49l-1.35,0.99c-0.27,0.2-0.66,0.01-0.66-0.33
			v-3.27c0-0.23-0.18-0.41-0.41-0.41h-5.39L2.11,45.21c-1.16,0-2.1-0.94-2.1-2.1l0-4.08c0-1.16,0.94-2.1,2.1-2.1h20.74
			c0.23,0,0.41-0.18,0.41-0.41l-0.01-3.27c0-0.34,0.38-0.53,0.66-0.33l1.17,0.87l4.62,3.43L34.48,40.75z"/>
	</g>
</g>
</svg>
