<svg width="26" height="26" viewBox="0 0 26 26" fill="none" xmlns="http://www.w3.org/2000/svg">
<circle cx="13" cy="13" r="13" fill="#F4A74D"/>
<path d="M11.3333 13.8333C11.3333 14.2754 11.5089 14.6993 11.8215 15.0118C12.1341 15.3244 12.558 15.5 13 15.5C13.442 15.5 13.866 15.3244 14.1785 15.0118C14.4911 14.6993 14.6667 14.2754 14.6667 13.8333C14.6667 13.3913 14.4911 12.9674 14.1785 12.6548C13.866 12.3423 13.442 12.1667 13 12.1667C12.558 12.1667 12.1341 12.3423 11.8215 12.6548C11.5089 12.9674 11.3333 13.3913 11.3333 13.8333Z" stroke="white" stroke-linecap="round" stroke-linejoin="round"/>
<path d="M9.66666 20.5V19.6667C9.66666 19.2246 9.84225 18.8007 10.1548 18.4882C10.4674 18.1756 10.8913 18 11.3333 18H14.6667C15.1087 18 15.5326 18.1756 15.8452 18.4882C16.1577 18.8007 16.3333 19.2246 16.3333 19.6667V20.5" stroke="white" stroke-linecap="round" stroke-linejoin="round"/>
<path d="M15.5 7.16667C15.5 7.60869 15.6756 8.03262 15.9882 8.34518C16.3007 8.65774 16.7246 8.83333 17.1667 8.83333C17.6087 8.83333 18.0326 8.65774 18.3452 8.34518C18.6577 8.03262 18.8333 7.60869 18.8333 7.16667C18.8333 6.72464 18.6577 6.30072 18.3452 5.98816C18.0326 5.67559 17.6087 5.5 17.1667 5.5C16.7246 5.5 16.3007 5.67559 15.9882 5.98816C15.6756 6.30072 15.5 6.72464 15.5 7.16667Z" stroke="white" stroke-linecap="round" stroke-linejoin="round"/>
<path d="M17.1667 11.3333H18.8333C19.2754 11.3333 19.6993 11.5089 20.0118 11.8215C20.3244 12.134 20.5 12.558 20.5 13V13.8333" stroke="white" stroke-linecap="round" stroke-linejoin="round"/>
<path d="M7.16666 7.16667C7.16666 7.60869 7.34225 8.03262 7.65481 8.34518C7.96737 8.65774 8.3913 8.83333 8.83332 8.83333C9.27535 8.83333 9.69927 8.65774 10.0118 8.34518C10.3244 8.03262 10.5 7.60869 10.5 7.16667C10.5 6.72464 10.3244 6.30072 10.0118 5.98816C9.69927 5.67559 9.27535 5.5 8.83332 5.5C8.3913 5.5 7.96737 5.67559 7.65481 5.98816C7.34225 6.30072 7.16666 6.72464 7.16666 7.16667Z" stroke="white" stroke-linecap="round" stroke-linejoin="round"/>
<path d="M5.5 13.8333V13C5.5 12.558 5.67559 12.134 5.98816 11.8215C6.30072 11.5089 6.72464 11.3333 7.16667 11.3333H8.83333" stroke="white" stroke-linecap="round" stroke-linejoin="round"/>
</svg>
