<svg width="25" height="25" viewBox="0 0 25 25" fill="none" xmlns="http://www.w3.org/2000/svg">
<path d="M21.8739 10.5247L17.3739 15.0247C17.2332 15.1654 17.0423 15.2445 16.8433 15.2445C16.6442 15.2445 16.4534 15.1654 16.3126 15.0247C16.1719 14.884 16.0928 14.6931 16.0928 14.4941C16.0928 14.295 16.1719 14.1042 16.3126 13.9634L19.5329 10.7441H15.812C13.9826 10.7436 12.205 11.3511 10.7586 12.4712C9.31215 13.5912 8.27904 15.1603 7.8217 16.9316C7.77197 17.1243 7.64773 17.2893 7.47631 17.3904C7.30489 17.4915 7.10033 17.5204 6.90764 17.4706C6.71494 17.4209 6.54989 17.2967 6.4488 17.1252C6.3477 16.9538 6.31885 16.7493 6.36857 16.5566C6.90821 14.4627 8.12897 12.6078 9.83863 11.2839C11.5483 9.96004 13.6497 9.24243 15.812 9.24407H19.5348L16.3126 6.02469C16.243 5.95501 16.1877 5.87229 16.15 5.78124C16.1123 5.6902 16.0928 5.59262 16.0928 5.49407C16.0928 5.39552 16.1123 5.29794 16.15 5.2069C16.1877 5.11585 16.243 5.03313 16.3126 4.96344C16.4534 4.82271 16.6442 4.74365 16.8433 4.74365C16.9418 4.74365 17.0394 4.76306 17.1304 4.80077C17.2215 4.83849 17.3042 4.89376 17.3739 4.96344L21.8739 9.46344C21.9436 9.5331 21.9989 9.61582 22.0367 9.70686C22.0744 9.79791 22.0939 9.89551 22.0939 9.99407C22.0939 10.0926 22.0744 10.1902 22.0367 10.2813C21.9989 10.3723 21.9436 10.455 21.8739 10.5247ZM18.3433 19.7441H4.09326V8.49407C4.09326 8.29516 4.01424 8.10439 3.87359 7.96374C3.73294 7.82309 3.54217 7.74407 3.34326 7.74407C3.14435 7.74407 2.95358 7.82309 2.81293 7.96374C2.67228 8.10439 2.59326 8.29516 2.59326 8.49407V20.4941C2.59326 20.693 2.67228 20.8837 2.81293 21.0244C2.95358 21.1651 3.14435 21.2441 3.34326 21.2441H18.3433C18.5422 21.2441 18.7329 21.1651 18.8736 21.0244C19.0142 20.8837 19.0933 20.693 19.0933 20.4941C19.0933 20.2952 19.0142 20.1044 18.8736 19.9637C18.7329 19.8231 18.5422 19.7441 18.3433 19.7441Z" fill="gray"/>
</svg>
