<svg width="32" height="32" viewBox="0 0 32 32" fill="none" xmlns="http://www.w3.org/2000/svg">
<circle cx="16" cy="16" r="16" fill="#F4A74D"/>
<path d="M13.5 10.1667H11.8333C11.3913 10.1667 10.9674 10.3423 10.6548 10.6548C10.3423 10.9674 10.1667 11.3913 10.1667 11.8333V21.8333C10.1667 22.2754 10.3423 22.6993 10.6548 23.0119C10.9674 23.3244 11.3913 23.5 11.8333 23.5H20.1667C20.6087 23.5 21.0326 23.3244 21.3452 23.0119C21.6577 22.6993 21.8333 22.2754 21.8333 21.8333V11.8333C21.8333 11.3913 21.6577 10.9674 21.3452 10.6548C21.0326 10.3423 20.6087 10.1667 20.1667 10.1667H18.5" stroke="white" stroke-width="1.5" stroke-linecap="round" stroke-linejoin="round"/>
<path d="M13.5 10.1667C13.5 9.72464 13.6756 9.30072 13.9882 8.98816C14.3007 8.67559 14.7246 8.5 15.1667 8.5H16.8333C17.2754 8.5 17.6993 8.67559 18.0118 8.98816C18.3244 9.30072 18.5 9.72464 18.5 10.1667C18.5 10.6087 18.3244 11.0326 18.0118 11.3452C17.6993 11.6577 17.2754 11.8333 16.8333 11.8333H15.1667C14.7246 11.8333 14.3007 11.6577 13.9882 11.3452C13.6756 11.0326 13.5 10.6087 13.5 10.1667Z" stroke="white" stroke-width="1.5" stroke-linecap="round" stroke-linejoin="round"/>
<path d="M13.5 16H18.5" stroke="white" stroke-width="1.5" stroke-linecap="round" stroke-linejoin="round"/>
<path d="M13.5 19.3333H18.5" stroke="white" stroke-width="1.5" stroke-linecap="round" stroke-linejoin="round"/>
</svg>
