<svg width="32" height="32" viewBox="0 0 32 32" fill="none" xmlns="http://www.w3.org/2000/svg">
<circle cx="16" cy="16" r="16" fill="#2FA3AE"/>
<path d="M20.1667 12.6667V10.1667C20.1667 9.94565 20.0789 9.73369 19.9226 9.57741C19.7663 9.42113 19.5543 9.33333 19.3333 9.33333H11C10.558 9.33333 10.134 9.50892 9.82148 9.82148C9.50892 10.134 9.33333 10.558 9.33333 11M9.33333 11C9.33333 11.442 9.50892 11.8659 9.82148 12.1785C10.134 12.4911 10.558 12.6667 11 12.6667H21C21.221 12.6667 21.433 12.7545 21.5893 12.9107C21.7455 13.067 21.8333 13.279 21.8333 13.5V16M9.33333 11V21C9.33333 21.442 9.50892 21.8659 9.82148 22.1785C10.134 22.4911 10.558 22.6667 11 22.6667H21C21.221 22.6667 21.433 22.5789 21.5893 22.4226C21.7455 22.2663 21.8333 22.0543 21.8333 21.8333V19.3333" stroke="white" stroke-width="1.5" stroke-linecap="round" stroke-linejoin="round"/>
<path d="M22.6667 16V19.3333H19.3333C18.8913 19.3333 18.4674 19.1577 18.1548 18.8452C17.8423 18.5326 17.6667 18.1087 17.6667 17.6667C17.6667 17.2246 17.8423 16.8007 18.1548 16.4882C18.4674 16.1756 18.8913 16 19.3333 16H22.6667Z" stroke="white" stroke-width="1.5" stroke-linecap="round" stroke-linejoin="round"/>
</svg>
