<svg width="32" height="32" viewBox="0 0 32 32" fill="none" xmlns="http://www.w3.org/2000/svg">
<circle cx="16" cy="16" r="16" fill="#252950"/>
<path d="M17.6667 8.5V11.8333C17.6667 12.0543 17.7545 12.2663 17.9107 12.4226C18.067 12.5789 18.279 12.6667 18.5 12.6667H21.8333" stroke="white" stroke-width="1.5" stroke-linecap="round" stroke-linejoin="round"/>
<path d="M20.1667 23.5H11.8333C11.3913 23.5 10.9674 23.3244 10.6548 23.0118C10.3423 22.6993 10.1667 22.2754 10.1667 21.8333V10.1667C10.1667 9.72464 10.3423 9.30072 10.6548 8.98816C10.9674 8.67559 11.3913 8.5 11.8333 8.5H17.6667L21.8333 12.6667V21.8333C21.8333 22.2754 21.6577 22.6993 21.3452 23.0118C21.0326 23.3244 20.6087 23.5 20.1667 23.5Z" stroke="white" stroke-width="1.5" stroke-linecap="round" stroke-linejoin="round"/>
<path d="M17.6667 15.1667H15.5833C15.2518 15.1667 14.9339 15.2984 14.6995 15.5328C14.465 15.7672 14.3333 16.0852 14.3333 16.4167C14.3333 16.7482 14.465 17.0661 14.6995 17.3006C14.9339 17.535 15.2518 17.6667 15.5833 17.6667H16.4167C16.7482 17.6667 17.0661 17.7984 17.3006 18.0328C17.535 18.2672 17.6667 18.5852 17.6667 18.9167C17.6667 19.2482 17.535 19.5661 17.3006 19.8006C17.0661 20.035 16.7482 20.1667 16.4167 20.1667H14.3333" stroke="white" stroke-width="1.5" stroke-linecap="round" stroke-linejoin="round"/>
<path d="M16 20.1667V21M16 14.3333V15.1667" stroke="white" stroke-width="1.5" stroke-linecap="round" stroke-linejoin="round"/>
</svg>
