<svg width="32" height="32" viewBox="0 0 32 32" fill="none" xmlns="http://www.w3.org/2000/svg">
<circle cx="16" cy="16" r="16" fill="#68D2F3"/>
<g clip-path="url(#clip0_24_28)">
<path d="M17.6667 8.5V11.8333C17.6667 12.0543 17.7545 12.2663 17.9107 12.4226C18.067 12.5789 18.279 12.6667 18.5 12.6667H21.8333" stroke="white" stroke-width="1.5" stroke-linecap="round" stroke-linejoin="round"/>
<path d="M20.1667 23.5H11.8333C11.3913 23.5 10.9674 23.3244 10.6548 23.0118C10.3423 22.6993 10.1667 22.2754 10.1667 21.8333V10.1667C10.1667 9.72464 10.3423 9.30072 10.6548 8.98816C10.9674 8.67559 11.3913 8.5 11.8333 8.5H17.6667L21.8333 12.6667V21.8333C21.8333 22.2754 21.6577 22.6993 21.3452 23.0118C21.0326 23.3244 20.6087 23.5 20.1667 23.5Z" stroke="white" stroke-width="1.5" stroke-linecap="round" stroke-linejoin="round"/>
<path d="M14.8215 18.8452L17.1785 16.4882" stroke="white" stroke-width="1.5" stroke-linecap="round" stroke-linejoin="round"/>
<path d="M14.8215 16.4882L17.1785 18.8452" stroke="white" stroke-width="1.5" stroke-linecap="round" stroke-linejoin="round"/>
</g>
<defs>
<clipPath id="clip0_24_28">
<rect width="20" height="20" fill="white" transform="translate(6 6)"/>
</clipPath>
</defs>
</svg>
