<svg width="32" height="32" viewBox="0 0 32 32" fill="none" xmlns="http://www.w3.org/2000/svg">
<circle cx="16" cy="16" r="16" fill="#F4A74D"/>
<path d="M10.1667 23.5V10.1667C10.1667 9.72464 10.3423 9.30072 10.6548 8.98816C10.9674 8.67559 11.3913 8.5 11.8333 8.5H20.1667C20.6087 8.5 21.0326 8.67559 21.3452 8.98816C21.6577 9.30072 21.8333 9.72464 21.8333 10.1667V23.5L19.3333 21.8333L17.6667 23.5L16 21.8333L14.3333 23.5L12.6667 21.8333L10.1667 23.5Z" stroke="white" stroke-width="1.5" stroke-linecap="round" stroke-linejoin="round"/>
<path d="M18.5 17.6667V16C18.5 15.558 18.3244 15.1341 18.0118 14.8215C17.6993 14.5089 17.2754 14.3333 16.8333 14.3333H13.5M13.5 14.3333L15.1667 12.6667M13.5 14.3333L15.1667 16" stroke="white" stroke-width="1.5" stroke-linecap="round" stroke-linejoin="round"/>
</svg>
